<?xml version="1.0" encoding="UTF-8"?>
<!DOCTYPE svg PUBLIC "-//W3C//DTD SVG 1.1//EN" "http://www.w3.org/Graphics/SVG/1.1/DTD/svg11.dtd">
<!-- Creator: CorelDRAW X7 -->
<svg xmlns="http://www.w3.org/2000/svg" xml:space="preserve" width="43.3494mm" height="43.3494mm" version="1.1" style="shape-rendering:geometricPrecision; text-rendering:geometricPrecision; image-rendering:optimizeQuality; fill-rule:evenodd; clip-rule:evenodd"
viewBox="0 0 1057 1057"
 xmlns:xlink="http://www.w3.org/1999/xlink">
 <defs>
  <style type="text/css">
   <![CDATA[
    .fil3 {fill:#FEFEFE}
    .fil2 {fill:url(#id0)}
    .fil1 {fill:url(#id1)}
    .fil0 {fill:url(#id2)}
   ]]>
  </style>
  <radialGradient id="id0" gradientUnits="userSpaceOnUse" gradientTransform="matrix(1.50366 0.386125 -0.386125 1.50366 -58 -340)" cx="399.52" cy="369.733" r="417.019" fx="399.52" fy="369.733">
   <stop offset="0" style="stop-opacity:1; stop-color:#A8FFB8"/>
   <stop offset="1" style="stop-opacity:1; stop-color:#376F4B"/>
  </radialGradient>
  <radialGradient id="id1" gradientUnits="userSpaceOnUse" gradientTransform="matrix(-1.50366 -0.386126 0.386126 -1.50366 1392 1993)" xlink:href="#id0" cx="662.796" cy="693.766" r="433.571" fx="662.796" fy="693.766">
  </radialGradient>
  <radialGradient id="id2" gradientUnits="userSpaceOnUse" gradientTransform="matrix(1.50366 0.386126 -0.386126 1.50366 -58 -332)" xlink:href="#id0" cx="391.163" cy="359.449" r="444.023" fx="391.163" fy="359.449">
  </radialGradient>
 </defs>
 <g id="Layer_x0020_1">
  <metadata id="CorelCorpID_0Corel-Layer"/>
  <g id="_291346152">
   <path class="fil0" d="M529 0c292,0 528,237 528,529 0,292 -236,528 -528,528 -292,0 -529,-236 -529,-528 0,-292 237,-529 529,-529z"/>
   <path class="fil1" d="M529 1045c-285,0 -517,-231 -517,-516 0,-285 232,-517 517,-517 285,0 516,232 516,517 0,285 -231,516 -516,516l0 0z"/>
   <path class="fil2" d="M529 32c274,0 496,222 496,497 0,274 -222,496 -496,496 -275,0 -497,-222 -497,-496 0,-275 222,-497 497,-497l0 0z"/>
   <path class="fil3" d="M895 531l-733 0c0,202 164,366 367,366 202,0 366,-164 366,-366zm-609 -1c-2,-25 -1,-49 4,-73l1 0c20,-91 93,-164 188,-181 1,0 2,0 2,0 1,0 2,0 3,-1 2,0 3,0 4,0 1,0 1,0 1,0 1,0 1,0 2,0 1,-1 2,-1 4,-1 1,0 2,0 3,0 0,0 1,0 1,0 97,-9 187,43 229,126l1 0c0,1 1,3 2,4 2,-1 5,-3 8,-3 6,0 12,6 12,12 0,6 -5,12 -11,12 0,1 0,2 1,2 2,0 3,0 5,0 11,0 19,8 19,18 0,9 -6,16 -14,18 0,5 1,9 2,14l112 -15c-24,-180 -182,-310 -360,-302l0 0c-2,0 -5,0 -7,0 0,0 -1,1 -2,1 -2,0 -3,0 -5,0 -1,0 -2,0 -3,0 -2,0 -4,1 -5,1 -2,0 -4,0 -7,1 0,0 -1,0 -1,0l0 0 0 0c-1,0 -2,0 -2,0 -2,0 -4,1 -6,1 -2,0 -3,0 -5,1 -1,0 -2,0 -3,0 -2,1 -4,1 -6,1 0,0 -1,0 -2,1 -2,0 -4,0 -6,1l-1 0c-166,37 -282,191 -271,362l113 0zm-54 28c6,0 11,5 11,10 0,6 -5,10 -11,10 -5,0 -10,-4 -10,-10 0,-5 5,-10 10,-10zm237 178c-11,-12 -17,-26 -17,-42 0,-3 0,-7 1,-10 2,-12 7,-24 16,-32 12,-12 26,-18 42,-18 16,0 31,6 42,18 6,5 10,12 13,19l2 3 60 0 -1 -6c-7,-29 -24,-55 -49,-72 -19,-14 -42,-21 -66,-21 -67,0 -119,54 -119,119 0,31 13,61 35,83 23,23 52,35 84,35 21,0 42,-5 59,-16l10 16 0 0 10 18 6 -18 0 0 33 -98 0 0 0 -1 -106 0 18 32c-9,5 -19,8 -30,8 -16,0 -31,-6 -43,-17z"/>
  </g>
 </g>
</svg>
