<?xml version="1.0" encoding="UTF-8"?>
<!DOCTYPE svg PUBLIC "-//W3C//DTD SVG 1.1//EN" "http://www.w3.org/Graphics/SVG/1.1/DTD/svg11.dtd">
<!-- Creator: CorelDRAW X7 -->
<svg xmlns="http://www.w3.org/2000/svg" xml:space="preserve" width="43.2646mm" height="43.2646mm" version="1.1" style="shape-rendering:geometricPrecision; text-rendering:geometricPrecision; image-rendering:optimizeQuality; fill-rule:evenodd; clip-rule:evenodd"
viewBox="0 0 5601 5601"
 xmlns:xlink="http://www.w3.org/1999/xlink">
 <defs>
  <style type="text/css">
   <![CDATA[
    .fil0 {fill:none}
    .fil1 {fill:#FEFEFE}
   ]]>
  </style>
 </defs>
 <g id="Layer_x0020_1">
  <metadata id="CorelCorpID_0Corel-Layer"/>
  <circle class="fil0" cx="2801" cy="2801" r="2801"/>
  <path class="fil1" d="M5564 2819l-5526 0c0,1526 1237,2763 2763,2763 1526,0 2763,-1237 2763,-2763zm-4591 -9c-18,-188 -6,-372 32,-547l2 -1c150,-684 700,-1238 1423,-1365 4,0 8,-1 13,-2 8,-1 15,-2 23,-4 10,-1 20,-3 30,-4 3,0 6,-1 9,-1 3,-1 6,-1 9,-1 10,-2 20,-3 30,-4 8,-1 16,-1 24,-2 4,-1 8,-1 12,-1 732,-65 1406,328 1727,951l2 0c6,12 12,23 18,35 16,-14 36,-22 58,-22 50,0 90,40 90,89 0,47 -36,85 -81,89 2,6 4,12 6,18 14,-5 28,-7 42,-7 77,0 140,62 140,139 0,66 -46,121 -108,136 7,34 12,69 17,104l844 -111c-178,-1358 -1366,-2336 -2710,-2277l-4 0c-17,1 -33,1 -49,3 -5,0 -10,0 -15,0 -14,1 -29,3 -43,4 -8,0 -15,1 -23,2 -12,1 -24,2 -36,3 -16,2 -32,4 -48,6 -4,1 -8,1 -12,2l-1 0 -1 0c-4,0 -8,1 -12,2 -16,2 -31,4 -47,6 -12,2 -24,4 -36,6 -8,2 -15,3 -23,4 -14,3 -28,5 -42,8 -5,1 -10,2 -15,3 -16,3 -32,6 -48,10l-4 1c-1258,278 -2132,1437 -2047,2728l854 0zm-407 212c43,0 77,34 77,77 0,43 -34,77 -77,77 -43,0 -77,-34 -77,-77 0,-43 34,-77 77,-77zm1789 1341c-86,-86 -133,-198 -133,-317 0,-24 3,-47 6,-71 14,-92 58,-180 124,-246 86,-86 198,-133 317,-133 120,0 232,47 317,133 42,41 76,90 99,145l10 21 458 0 -11 -44c-49,-221 -179,-413 -366,-541 -148,-104 -322,-158 -504,-158 -498,0 -891,404 -891,894 0,239 93,462 262,631 169,169 392,262 631,262 159,0 315,-41 450,-122l68 122 3 0 74 131 45 -131 2 0 250 -742 -2 0 2 -6 -798 0 137 239c-70,42 -150,65 -233,65 -120,0 -231,-47 -317,-132z"/>
 </g>
</svg>
